<?xml version="1.0" encoding="utf-8"?>
<!-- Generator: Adobe Illustrator 27.6.1, SVG Export Plug-In . SVG Version: 6.00 Build 0)  -->
<svg version="1.1" id="Layer_1" xmlns="http://www.w3.org/2000/svg" xmlns:xlink="http://www.w3.org/1999/xlink" x="0px" y="0px"
	 viewBox="0 0 367.2 79.2" style="enable-background:new 0 0 367.2 79.2;" xml:space="preserve">
<style type="text/css">
	.st0{fill:#FDBF38;}
	.st1{fill:#DA1A32;}
</style>
<g>
	<path d="M88.1,10.3h2.6v9.2c0,1.9,1.3,3,3.2,3s3.2-1.1,3.2-3v-9.2h2.6v9.2c0,3.2-2.3,5.4-5.8,5.4c-3.5,0-5.8-2.2-5.8-5.4V10.3z"/>
	<path d="M103.9,10.3h2.6l5.4,8.3c0.5,0.8,1.2,2.2,1.2,2.2h0c0,0-0.1-1.4-0.1-2.2v-8.3h2.6v14.4h-2.6l-5.4-8.3
		c-0.5-0.8-1.2-2.2-1.2-2.2h0c0,0,0.1,1.4,0.1,2.2v8.3h-2.6V10.3z"/>
	<path d="M120.1,10.3h2.6v14.4h-2.6V10.3z"/>
	<path d="M125.3,10.3h2.8l3.2,9.4c0.3,0.8,0.5,2.1,0.5,2.1h0c0,0,0.3-1.3,0.5-2.1l3.2-9.4h2.8l-5.2,14.4h-2.6L125.3,10.3z"/>
	<path d="M141,10.3h8.6v2.2h-6v3.8h4.8v2.2h-4.8v3.9h6.3v2.2H141V10.3z"/>
	<path d="M153.4,10.3h4.6c1.6,0,2.3,0.1,2.9,0.4c1.4,0.6,2.3,2,2.3,3.9c0,1.7-0.9,3.3-2.4,3.9v0c0,0,0.2,0.2,0.5,0.7l3,5.4h-2.9
		l-2.9-5.4H156v5.4h-2.6V10.3z M158.4,17c1.4,0,2.3-0.8,2.3-2.3c0-1.4-0.6-2.2-2.6-2.2h-2V17H158.4z"/>
	<path d="M167.9,21c0,0,1.6,1.5,3.6,1.5c1.1,0,2.1-0.6,2.1-1.7c0-2.6-6.8-2.1-6.8-6.5c0-2.4,2.1-4.2,4.8-4.2c2.8,0,4.3,1.5,4.3,1.5
		l-1.1,2.1c0,0-1.4-1.3-3.2-1.3c-1.2,0-2.2,0.7-2.2,1.7c0,2.5,6.8,1.9,6.8,6.5c0,2.3-1.7,4.2-4.7,4.2c-3.2,0-5-2-5-2L167.9,21z"/>
	<path d="M179.6,10.3h2.6v14.4h-2.6V10.3z"/>
	<path d="M189.6,12.5h-4.7v-2.2h12v2.2h-4.7v12.1h-2.6V12.5z"/>
	<path d="M202.9,18.6l-4.8-8.4h3l2.2,4.2c0.5,0.9,0.8,1.9,0.9,1.9h0c0,0,0.4-1,0.9-1.9l2.2-4.2h3l-4.8,8.4v6h-2.6V18.6z"/>
	<path d="M225.1,10c4.2,0,7.4,3.2,7.4,7.3c0,4.2-3.2,7.5-7.4,7.5c-4.2,0-7.4-3.3-7.4-7.5C217.7,13.2,220.9,10,225.1,10z M225.1,22.5
		c2.6,0,4.7-2.2,4.7-5.1c0-2.8-2.1-4.9-4.7-4.9c-2.6,0-4.7,2.1-4.7,4.9C220.4,20.3,222.5,22.5,225.1,22.5z"/>
	<path d="M235.8,10.3h8.3v2.2h-5.6v4.1h4.8v2.2h-4.8v5.8h-2.6V10.3z"/>
	<path d="M253.8,10.3h2.8l2.8,7.1c0.3,0.8,0.7,2.1,0.7,2.1h0c0,0,0.4-1.3,0.7-2.1l2.8-7.1h2.8l1.2,14.4H265l-0.6-8
		c-0.1-1,0-2.2,0-2.2h0c0,0-0.4,1.4-0.8,2.2l-2.3,5.6h-2.3l-2.3-5.6c-0.3-0.8-0.8-2.2-0.8-2.2h0c0,0,0,1.3,0,2.2l-0.6,8h-2.6
		L253.8,10.3z"/>
	<path d="M278.7,21h-5l-1.2,3.7h-2.7l5.1-14.4h2.7l5.1,14.4h-2.7L278.7,21z M276.2,12.8c0,0-0.3,1.4-0.6,2.2l-1.3,3.8h3.8l-1.3-3.8
		C276.5,14.2,276.2,12.8,276.2,12.8L276.2,12.8z"/>
	<path d="M284.7,10.3h4.6c1.6,0,2.3,0.1,2.9,0.4c1.4,0.6,2.3,2,2.3,3.9c0,1.7-0.9,3.3-2.4,3.9v0c0,0,0.2,0.2,0.5,0.7l3,5.4h-2.9
		l-2.9-5.4h-2.5v5.4h-2.6V10.3z M289.6,17c1.4,0,2.3-0.8,2.3-2.3c0-1.4-0.6-2.2-2.6-2.2h-2V17H289.6z"/>
	<path d="M300.6,18.6l-4.8-8.4h3l2.2,4.2c0.5,0.9,0.8,1.9,0.9,1.9h0c0,0,0.4-1,0.9-1.9l2.2-4.2h3l-4.8,8.4v6h-2.6V18.6z"/>
	<path d="M310,10.3h2.6v12.1h6.2v2.2H310V10.3z"/>
	<path d="M329.9,21h-5l-1.2,3.7h-2.7l5.1-14.4h2.7l5.1,14.4h-2.7L329.9,21z M327.3,12.8c0,0-0.3,1.4-0.6,2.2l-1.3,3.8h3.8l-1.3-3.8
		C327.7,14.2,327.4,12.8,327.3,12.8L327.3,12.8z"/>
	<path d="M335.8,10.3h2.6l5.4,8.3c0.5,0.8,1.2,2.2,1.2,2.2h0c0,0-0.1-1.4-0.1-2.2v-8.3h2.6v14.4H345l-5.4-8.3
		c-0.5-0.8-1.2-2.2-1.2-2.2h0c0,0,0.1,1.4,0.1,2.2v8.3h-2.6V10.3z"/>
	<path d="M351.4,10.3h4.9c4.4,0,7.3,2.6,7.3,7.2s-2.9,7.2-7.3,7.2h-4.9V10.3z M356.1,22.4c2.9,0,4.8-1.7,4.8-5
		c0-3.2-1.9-4.9-4.8-4.9H354v9.9H356.1z"/>
</g>
<g>
	<path d="M94.7,32.8c3.5,0,5.3,1.8,5.3,1.8l-1.3,1.9c0,0-1.5-1.4-3.8-1.4c-3.2,0-4.9,2.2-4.9,4.9c0,3.1,2.1,5.1,4.8,5.1
		c2.2,0,3.6-1.5,3.6-1.5v-1.7h-2.2v-2.2h4.6v7.6h-2.2v-0.7c0-0.3,0-0.6,0-0.6h0c0,0-1.5,1.5-4.2,1.5c-3.8,0-7-2.9-7-7.4
		C87.3,36.1,90.5,32.8,94.7,32.8z"/>
	<path d="M104.5,33.1h2.6v12.1h6.2v2.2h-8.8V33.1z"/>
	<path d="M122.3,32.8c4.2,0,7.4,3.2,7.4,7.3c0,4.2-3.2,7.5-7.4,7.5c-4.2,0-7.4-3.3-7.4-7.5C114.9,36.1,118.1,32.8,122.3,32.8z
		 M122.3,45.3c2.6,0,4.7-2.2,4.7-5.1c0-2.8-2.1-4.9-4.7-4.9c-2.6,0-4.7,2.1-4.7,4.9C117.6,43.1,119.7,45.3,122.3,45.3z"/>
	<path d="M132.6,33.1h5.1c2.6,0,4.4,1.3,4.4,3.7c0,1.3-0.6,2.5-1.7,3.1v0c1.6,0.5,2.3,1.9,2.3,3.4c0,2.9-2.3,4.2-5,4.2h-5.2V33.1z
		 M137.7,39c1.1,0,1.8-0.8,1.8-1.8c0-1-0.6-1.8-1.8-1.8h-2.5V39H137.7z M138,45.2c1.3,0,2.1-0.9,2.1-2.1c0-1.2-0.8-2.1-2.1-2.1h-2.8
		v4.1H138z"/>
	<path d="M153.5,43.8h-5l-1.2,3.7h-2.7l5.1-14.4h2.7l5.1,14.4h-2.7L153.5,43.8z M151,35.6c0,0-0.3,1.4-0.6,2.2l-1.3,3.8h3.8
		l-1.3-3.8C151.3,37,151,35.6,151,35.6L151,35.6z"/>
	<path d="M160.1,33.1h2.6v12.1h6.2v2.2h-8.8V33.1z"/>
	<path d="M183.9,32.8c3.5,0,5.3,2,5.3,2l-1.3,1.9c0,0-1.6-1.5-3.9-1.5c-3,0-4.8,2.3-4.8,4.9c0,2.7,1.8,5.1,4.8,5.1
		c2.5,0,4.2-1.8,4.2-1.8l1.4,1.9c0,0-2,2.3-5.6,2.3c-4.4,0-7.4-3.3-7.4-7.5C176.5,36,179.7,32.8,183.9,32.8z"/>
	<path d="M199.9,43.8h-5l-1.2,3.7H191l5.1-14.4h2.7l5.1,14.4h-2.7L199.9,43.8z M197.4,35.6c0,0-0.3,1.4-0.6,2.2l-1.3,3.8h3.8
		l-1.3-3.8C197.7,37,197.4,35.6,197.4,35.6L197.4,35.6z"/>
	<path d="M207.3,33.1h2.8l2.8,7.1c0.3,0.8,0.7,2.1,0.7,2.1h0c0,0,0.4-1.3,0.7-2.1l2.8-7.1h2.8l1.2,14.4h-2.6l-0.6-8
		c-0.1-1,0-2.2,0-2.2h0c0,0-0.4,1.4-0.8,2.2l-2.3,5.6h-2.3l-2.3-5.6c-0.3-0.8-0.8-2.2-0.8-2.2h0c0,0,0,1.3,0,2.2l-0.6,8h-2.6
		L207.3,33.1z"/>
	<path d="M224.5,33.1h5.5c2.7,0,4.6,1.9,4.6,4.7c0,2.8-1.9,4.7-4.6,4.7h-2.9v5h-2.6V33.1z M229.6,40.2c1.5,0,2.4-1,2.4-2.5
		c0-1.5-0.9-2.4-2.4-2.4h-2.5v4.9H229.6z"/>
	<path d="M237.6,33.1h2.6v9.2c0,1.9,1.3,3,3.2,3s3.2-1.1,3.2-3v-9.2h2.6v9.2c0,3.2-2.3,5.4-5.8,5.4c-3.5,0-5.8-2.2-5.8-5.4V33.1z"/>
	<path d="M253.4,43.8c0,0,1.6,1.5,3.6,1.5c1.1,0,2.1-0.6,2.1-1.7c0-2.6-6.8-2.1-6.8-6.5c0-2.4,2.1-4.2,4.8-4.2
		c2.8,0,4.3,1.5,4.3,1.5l-1.1,2.1c0,0-1.4-1.3-3.2-1.3c-1.2,0-2.2,0.7-2.2,1.7c0,2.5,6.8,1.9,6.8,6.5c0,2.3-1.7,4.2-4.7,4.2
		c-3.2,0-5-2-5-2L253.4,43.8z"/>
</g>
<g>
	<ellipse transform="matrix(0.9366 -0.3503 0.3503 0.9366 -0.9994 8.2958)" class="st0" cx="22.4" cy="6.9" rx="9.2" ry="2.6"/>
	<path class="st0" d="M47.3,4.3c-2.9-1-5.9-1.7-8.9-2c0,0,0,0,0,0c0,0,0,0,0,0.1c0,0,0,0,0,0c0.8,0.3,1.3,0.6,1.5,1.2
		c1,2.6-5.6,7.4-14.6,10.8c-1.8,0.7-3.6,1.3-5.4,1.7l-2.2,8c3-0.7,6.4-1.7,10-3.1c12.6-4.7,19.9-10.2,21.2-14.3
		c0.1-0.3,0.1-0.7,0-1.1S48.4,4.7,47.3,4.3z"/>
	<path class="st1" d="M68.4,23.1C68.4,23,68.3,23,68.4,23.1C68.3,23,68.3,23.1,68.4,23.1C68.6,28.5,55,38,36.6,44.9
		c-1.8,0.7-3.5,1.3-5.2,1.8l-2.8,10.1c3.5-1,7.2-2.2,11.1-3.6C54.7,47.6,64.9,41,70.2,34.9c0.3-0.4,1.5-1.8,1.1-3.7
		c-0.3-1.6-0.8-3.1-1.4-4.6C69.4,25.3,68.9,24.2,68.4,23.1z"/>
	<path class="st1" d="M62.3,14.3c-1.9-2-3.9-3.8-6.1-5.4c0,0,0,0-0.1,0c0,0,0,0.1,0,0.1c0.1,0.2,0.2,0.4,0.3,0.6
		c1.6,4.4-10,12.8-26,18.7c-9.1,3.4-17.7,5.3-23.6,5.5l-3.2,9c6.8,0.5,17.1-1.4,29.9-6.2C46.9,31.6,56.1,26,60.8,21
		c0.9-0.9,1.5-2,2-3.1C63.2,16.7,63.2,15.2,62.3,14.3z"/>
	<path d="M72.2,41.5C72.1,41.5,72.1,41.6,72.2,41.5C69.5,47,57.7,54.8,42.5,60.5c-7.3,2.7-14.4,4.6-20.3,5.5l-2.4,7
		c6.9-0.4,15.4-2.3,25.2-5.9c7-2.6,19.4-8.5,24-14.9C70.5,50.1,72.1,45.4,72.2,41.5C72.2,41.6,72.2,41.6,72.2,41.5z"/>
	<g>
		<path d="M65.8,60.5C65.8,60.5,65.8,60.5,65.8,60.5c-5.5,4.3-12.2,8.1-19.8,10.9c-1.8,0.7-3.6,1.3-5.4,1.8l-1,3.6
			c2.7-0.4,5.5-1,8.1-2.1C55.5,72,61.6,66.9,65.8,60.5C65.9,60.6,65.9,60.6,65.8,60.5z"/>
	</g>
</g>
<g>
	<path d="M93.3,66.3h-3.3l-0.9,2.5h-1.3L91,60h1.3l3.2,8.8h-1.3L93.3,66.3z M91.6,61.2c0,0-0.2,0.8-0.3,1.2l-1,2.8h2.7l-1-2.8
		C91.8,62,91.6,61.2,91.6,61.2L91.6,61.2z"/>
	<path d="M97.7,60H99v7.7h3.9v1.1h-5.2V60z"/>
	<path d="M105.1,60h1.2v5.7c0,1.3,0.9,2.1,2.2,2.1c1.4,0,2.2-0.8,2.2-2.2V60h1.2v5.7c0,2-1.4,3.3-3.5,3.3c-2.1,0-3.5-1.3-3.5-3.3V60
		z"/>
	<path d="M115.7,60h1.3l2,4.8c0.2,0.5,0.4,1.2,0.4,1.2h0c0,0,0.2-0.7,0.4-1.2l2-4.8h1.3l0.7,8.8h-1.2l-0.4-5.6c0-0.5,0-1.3,0-1.3h0
		c0,0-0.3,0.8-0.5,1.3l-1.8,4h-1.1l-1.7-4c-0.2-0.5-0.5-1.3-0.5-1.3h0c0,0,0,0.8,0,1.3l-0.4,5.6H115L115.7,60z"/>
	<path d="M127.1,60h1.2l3.9,5.7c0.3,0.5,0.7,1.3,0.7,1.3h0c0,0-0.1-0.8-0.1-1.3V60h1.2v8.8h-1.2l-3.9-5.7c-0.3-0.5-0.7-1.3-0.7-1.3
		h0c0,0,0.1,0.8,0.1,1.3v5.7h-1.2V60z"/>
	<path d="M137.5,60h1.2v8.8h-1.2V60z"/>
	<path d="M150.7,66.3h-3.3l-0.9,2.5h-1.3l3.2-8.8h1.3l3.2,8.8h-1.3L150.7,66.3z M149.1,61.2c0,0-0.2,0.8-0.3,1.2l-1,2.8h2.7l-1-2.8
		C149.3,62,149.1,61.2,149.1,61.2L149.1,61.2z"/>
	<path d="M155.2,66.9c0,0,0.9,0.9,2.2,0.9c0.8,0,1.5-0.5,1.5-1.3c0-1.9-4.3-1.5-4.3-4.2c0-1.4,1.2-2.5,2.8-2.5
		c1.6,0,2.5,0.9,2.5,0.9l-0.6,1c0,0-0.8-0.8-1.9-0.8c-0.9,0-1.6,0.6-1.6,1.3c0,1.8,4.3,1.3,4.3,4.2c0,1.4-1,2.5-2.8,2.5
		c-1.9,0-2.9-1.2-2.9-1.2L155.2,66.9z"/>
	<path d="M163,66.9c0,0,0.9,0.9,2.2,0.9c0.8,0,1.5-0.5,1.5-1.3c0-1.9-4.3-1.5-4.3-4.2c0-1.4,1.2-2.5,2.8-2.5c1.6,0,2.5,0.9,2.5,0.9
		l-0.6,1c0,0-0.8-0.8-1.9-0.8c-0.9,0-1.6,0.6-1.6,1.3c0,1.8,4.3,1.3,4.3,4.2c0,1.4-1,2.5-2.8,2.5c-1.9,0-2.9-1.2-2.9-1.2L163,66.9z"
		/>
	<path d="M174.7,59.9c2.5,0,4.5,2,4.5,4.5c0,2.6-2,4.6-4.5,4.6s-4.5-2-4.5-4.6C170.2,61.8,172.2,59.9,174.7,59.9z M174.7,67.9
		c1.8,0,3.2-1.5,3.2-3.5c0-1.9-1.4-3.4-3.2-3.4c-1.8,0-3.3,1.4-3.3,3.4C171.5,66.4,172.9,67.9,174.7,67.9z"/>
	<path d="M185.9,59.9c2.1,0,3.2,1.2,3.2,1.2l-0.6,0.9c0,0-1-1-2.5-1c-2,0-3.3,1.5-3.3,3.4c0,1.9,1.3,3.5,3.3,3.5
		c1.7,0,2.7-1.1,2.7-1.1l0.7,0.9c0,0-1.2,1.4-3.4,1.4c-2.6,0-4.5-2-4.5-4.6C181.5,61.8,183.4,59.9,185.9,59.9z"/>
	<path d="M192.1,60h1.2v8.8h-1.2V60z"/>
	<path d="M201.1,66.3h-3.3l-0.9,2.5h-1.3l3.2-8.8h1.3l3.2,8.8h-1.3L201.1,66.3z M199.4,61.2c0,0-0.2,0.8-0.3,1.2l-1,2.8h2.7l-1-2.8
		C199.6,62,199.4,61.2,199.4,61.2L199.4,61.2z"/>
	<path d="M206.9,61.1h-3V60h7.3v1.1h-3v7.7h-1.2V61.1z"/>
	<path d="M213.4,60h1.2v8.8h-1.2V60z"/>
	<path d="M221.9,59.9c2.5,0,4.5,2,4.5,4.5c0,2.6-2,4.6-4.5,4.6c-2.5,0-4.5-2-4.5-4.6C217.4,61.8,219.4,59.9,221.9,59.9z M221.9,67.9
		c1.8,0,3.2-1.5,3.2-3.5c0-1.9-1.4-3.4-3.2-3.4c-1.8,0-3.3,1.4-3.3,3.4C218.7,66.4,220.1,67.9,221.9,67.9z"/>
	<path d="M229.3,60h1.2l3.9,5.7c0.3,0.5,0.7,1.3,0.7,1.3h0c0,0-0.1-0.8-0.1-1.3V60h1.2v8.8h-1.2l-3.9-5.7c-0.3-0.5-0.7-1.3-0.7-1.3
		h0c0,0,0.1,0.8,0.1,1.3v5.7h-1.2V60z"/>
</g>
</svg>
